<svg xmlns="http://www.w3.org/2000/svg" viewBox="0 0 900 500" fill="none" stroke="#000" stroke-width="1.4"><path d="M597.6 230.0C598.1 231.2 598.1 232.5 597.7 233.7C597.4 234.9 596.5 236.0 595.5 237.0C594.5 238.1 593.1 238.9 591.7 239.7C590.4 240.5 588.8 241.1 587.5 241.7C586.1 242.4 584.7 242.8 583.5 243.4C582.3 243.9 581.2 244.4 580.1 244.9C579.1 245.4 578.1 246.0 577.1 246.5C576.1 247.1 575.2 247.6 574.1 248.1C573.0 248.5 571.9 249.0 570.8 249.3C569.6 249.5 568.4 249.7 567.2 249.8C565.9 249.8 564.7 249.8 563.5 249.7C562.3 249.6 561.1 249.3 560.0 249.2C558.9 249.1 557.8 248.9 556.6 248.9C555.5 248.8 554.4 248.9 553.1 249.0C551.9 249.1 550.6 249.3 549.1 249.5C547.7 249.7 546.0 249.9 544.4 250.0C542.8 250.1 541.0 250.1 539.4 249.9C537.8 249.6 536.2 249.2 534.9 248.6C533.6 248.0 532.5 247.1 531.8 246.1C531.1 245.0 530.7 243.8 530.7 242.5C530.6 241.3 531.1 239.9 531.6 238.7C532.1 237.5 533.0 236.3 533.7 235.2C534.4 234.2 535.4 233.2 535.9 232.3C536.5 231.5 537.0 230.8 537.2 230.0C537.4 229.2 537.2 228.6 537.0 227.8C536.7 226.9 536.1 226.1 535.6 225.2C535.1 224.2 534.4 223.1 533.9 222.0C533.5 220.9 533.1 219.6 533.0 218.5C533.0 217.3 533.1 216.0 533.6 215.0C534.0 213.9 534.8 212.9 535.7 212.0C536.7 211.2 537.9 210.5 539.1 209.9C540.4 209.3 541.8 208.8 543.2 208.4C544.6 208.0 546.0 207.7 547.4 207.5C548.8 207.2 550.2 206.9 551.6 206.7C553.0 206.5 554.4 206.2 555.8 206.1C557.2 206.0 558.6 205.9 560.0 206.0C561.4 206.1 562.8 206.2 564.2 206.6C565.5 207.0 566.8 207.6 567.8 208.3C568.9 209.1 569.9 210.0 570.6 211.0C571.4 211.9 571.9 213.1 572.4 214.1C572.8 215.1 573.1 216.2 573.4 217.1C573.7 217.9 574.0 218.7 574.5 219.3C575.0 219.9 575.6 220.3 576.5 220.6C577.4 221.0 578.6 221.2 580.0 221.5C581.4 221.7 583.2 221.9 584.9 222.4C586.6 222.8 588.6 223.3 590.3 224.0C592.0 224.7 593.7 225.6 594.9 226.6C596.2 227.6 597.1 228.8 597.6 230.0Z"/><path d="M635.6 230.0C636.3 232.4 636.0 235.0 635.1 237.3C634.2 239.6 632.2 241.9 630.1 243.9C627.9 245.9 625.0 247.6 622.4 249.1C619.7 250.7 616.7 251.9 614.1 253.1C611.4 254.3 608.9 255.4 606.5 256.5C604.2 257.6 602.2 258.6 600.1 259.7C598.1 260.8 596.3 262.0 594.3 263.1C592.3 264.2 590.4 265.4 588.3 266.3C586.1 267.2 583.9 268.0 581.5 268.5C579.2 269.0 576.7 269.3 574.3 269.4C571.8 269.5 569.3 269.3 566.9 269.1C564.6 268.9 562.3 268.5 560.0 268.3C557.7 268.1 555.6 267.9 553.3 267.9C550.9 267.9 548.7 268.1 546.1 268.4C543.5 268.7 540.8 269.3 537.8 269.7C534.8 270.1 531.5 270.7 528.2 270.8C525.0 270.9 521.4 270.9 518.3 270.3C515.1 269.7 511.9 268.8 509.5 267.4C507.1 266.0 505.1 264.0 503.9 261.9C502.7 259.8 502.2 257.1 502.3 254.7C502.5 252.2 503.5 249.4 504.6 247.0C505.6 244.6 507.5 242.2 508.8 240.2C510.2 238.1 511.9 236.3 512.8 234.6C513.8 232.9 514.5 231.5 514.6 230.0C514.7 228.5 514.2 227.1 513.4 225.5C512.7 223.8 511.3 222.1 510.2 220.1C509.1 218.1 507.6 215.9 506.7 213.7C505.9 211.4 505.2 208.9 505.1 206.5C505.1 204.2 505.6 201.8 506.6 199.7C507.7 197.6 509.4 195.6 511.3 194.0C513.3 192.3 515.8 191.0 518.4 189.8C520.9 188.6 523.7 187.8 526.5 187.0C529.2 186.2 532.1 185.6 534.8 185.0C537.6 184.4 540.4 183.8 543.1 183.4C545.9 182.9 548.7 182.4 551.5 182.1C554.3 181.9 557.2 181.7 560.0 181.9C562.8 182.2 565.7 182.6 568.3 183.5C570.8 184.4 573.4 185.7 575.5 187.2C577.6 188.8 579.4 190.8 580.8 192.8C582.3 194.7 583.2 197.0 584.1 199.0C585.1 201.0 585.5 203.0 586.2 204.7C587.0 206.3 587.6 207.6 588.8 208.7C590.0 209.8 591.3 210.4 593.4 211.0C595.5 211.6 598.1 211.9 601.1 212.4C604.1 213.0 607.8 213.4 611.3 214.2C614.9 215.1 618.9 216.2 622.2 217.7C625.5 219.1 628.8 221.0 631.0 223.1C633.3 225.1 634.9 227.6 635.6 230.0Z"/><path d="M673.8 230.0C674.4 233.6 673.5 237.5 671.8 240.9C670.2 244.3 666.9 247.7 663.6 250.6C660.3 253.5 655.9 256.0 652.0 258.2C648.0 260.5 643.7 262.3 639.9 264.2C636.1 266.0 632.5 267.6 629.2 269.3C625.9 271.0 623.0 272.8 620.1 274.5C617.1 276.2 614.5 278.1 611.6 279.8C608.6 281.4 605.7 283.2 602.5 284.5C599.2 285.8 595.8 286.9 592.3 287.7C588.7 288.4 584.9 288.7 581.3 288.8C577.6 288.9 573.9 288.6 570.4 288.3C566.8 288.1 563.4 287.5 560.0 287.3C556.6 287.1 553.4 287.0 549.8 287.2C546.3 287.4 542.8 287.9 538.8 288.5C534.9 289.1 530.6 290.1 526.1 290.7C521.5 291.3 516.4 292.2 511.5 292.2C506.6 292.3 501.2 292.2 496.7 291.1C492.1 290.1 487.5 288.5 484.2 286.2C480.8 283.9 478.1 280.7 476.6 277.4C475.1 274.1 474.8 270.0 475.2 266.3C475.6 262.5 477.3 258.4 479.0 254.8C480.7 251.3 483.4 247.8 485.3 244.8C487.2 241.8 489.4 239.2 490.5 236.8C491.6 234.3 492.2 232.3 492.0 230.0C491.8 227.7 490.5 225.6 489.2 223.1C487.8 220.6 485.4 217.9 483.6 214.8C481.8 211.8 479.6 208.4 478.4 205.0C477.2 201.5 476.3 197.7 476.5 194.3C476.6 190.8 477.6 187.2 479.4 184.2C481.1 181.1 483.9 178.3 486.9 175.9C490.0 173.5 493.9 171.6 497.7 169.9C501.5 168.2 505.8 166.9 509.9 165.7C514.0 164.5 518.2 163.5 522.3 162.6C526.4 161.6 530.5 160.7 534.7 160.0C538.8 159.2 543.0 158.4 547.2 158.1C551.4 157.8 555.8 157.6 560.0 158.0C564.2 158.4 568.5 159.3 572.3 160.8C576.1 162.2 579.8 164.4 582.9 166.8C585.9 169.2 588.5 172.4 590.5 175.4C592.6 178.3 594.0 181.8 595.3 184.7C596.7 187.6 597.4 190.5 598.6 192.7C599.9 194.9 601.0 196.7 603.0 198.1C605.1 199.5 607.6 200.2 611.0 201.0C614.4 201.8 618.8 202.1 623.5 202.8C628.2 203.6 634.1 204.3 639.4 205.6C644.8 207.0 650.8 208.7 655.6 211.0C660.3 213.3 665.0 216.3 668.0 219.5C671.1 222.6 673.1 226.4 673.8 230.0Z"/><path d="M711.8 230.0C712.2 234.8 710.5 239.9 707.8 244.4C705.2 248.9 700.6 253.2 696.1 257.0C691.5 260.8 685.7 264.0 680.6 267.0C675.4 270.0 669.9 272.4 665.1 274.9C660.2 277.4 655.7 279.7 651.6 282.0C647.4 284.4 643.8 286.9 640.0 289.3C636.2 291.7 632.8 294.3 628.9 296.5C625.0 298.7 621.0 301.0 616.7 302.7C612.4 304.4 607.7 305.9 602.9 306.7C598.2 307.6 593.1 307.9 588.2 308.1C583.4 308.2 578.5 307.7 573.8 307.4C569.0 307.1 564.6 306.5 560.0 306.4C555.4 306.3 551.1 306.4 546.3 306.8C541.6 307.3 536.8 308.3 531.3 309.2C525.9 310.2 520.0 311.7 513.8 312.5C507.7 313.4 500.7 314.5 494.2 314.4C487.7 314.4 480.6 313.9 474.7 312.3C468.8 310.7 463.0 308.2 458.9 304.9C454.8 301.6 451.7 297.1 450.1 292.5C448.5 287.9 448.5 282.4 449.3 277.3C450.1 272.3 452.7 266.9 455.0 262.2C457.2 257.5 460.7 253.1 463.0 249.3C465.3 245.4 467.7 242.1 468.7 238.9C469.8 235.7 469.9 233.0 469.1 230.0C468.3 227.0 466.2 224.1 464.0 220.6C461.8 217.2 458.4 213.5 455.9 209.3C453.4 205.2 450.5 200.6 449.0 196.0C447.6 191.3 446.6 186.3 447.1 181.7C447.6 177.1 449.2 172.5 451.8 168.5C454.4 164.5 458.4 160.9 462.6 157.8C466.8 154.8 472.1 152.3 477.2 150.1C482.4 147.9 488.0 146.2 493.4 144.5C498.8 142.9 504.3 141.5 509.8 140.2C515.2 138.8 520.6 137.5 526.2 136.5C531.7 135.4 537.3 134.4 542.9 134.0C548.6 133.6 554.4 133.5 560.0 134.2C565.6 135.0 571.3 136.3 576.3 138.5C581.3 140.7 586.0 143.8 590.0 147.1C593.9 150.5 597.1 154.9 599.8 158.8C602.5 162.8 604.1 167.3 606.0 171.0C607.8 174.7 608.8 178.3 610.7 181.0C612.6 183.8 614.4 185.8 617.5 187.4C620.6 189.0 624.4 189.7 629.4 190.5C634.4 191.4 640.7 191.7 647.3 192.7C653.9 193.7 661.9 194.6 669.1 196.5C676.3 198.4 684.2 200.9 690.3 204.1C696.4 207.3 702.2 211.5 705.8 215.8C709.4 220.1 711.5 225.2 711.8 230.0Z"/><path d="M749.6 230.0C749.4 236.0 746.6 242.3 742.9 247.8C739.2 253.4 733.2 258.6 727.4 263.2C721.7 267.8 714.5 271.8 708.2 275.5C701.9 279.2 695.4 282.3 689.7 285.5C683.9 288.7 678.7 291.6 673.8 294.7C668.8 297.8 664.6 301.0 660.0 304.1C655.4 307.2 651.1 310.5 646.3 313.3C641.4 316.1 636.4 318.9 630.9 321.0C625.4 323.0 619.5 324.7 613.5 325.7C607.5 326.7 601.2 326.9 595.1 327.0C589.0 327.2 583.0 326.5 577.1 326.3C571.3 326.1 565.7 325.5 560.0 325.6C554.3 325.7 548.8 326.1 542.8 327.0C536.7 327.8 530.5 329.4 523.6 330.7C516.6 332.1 509.0 334.1 501.2 335.2C493.3 336.3 484.5 337.5 476.4 337.2C468.3 337.0 459.6 336.1 452.5 333.7C445.5 331.4 438.7 327.8 434.0 323.3C429.3 318.9 426.0 313.0 424.5 307.0C422.9 301.1 423.5 294.1 424.8 287.8C426.1 281.5 429.5 274.9 432.3 269.2C435.1 263.5 439.2 258.2 441.7 253.5C444.1 248.8 446.6 244.9 447.2 241.0C447.9 237.1 447.4 233.8 445.8 230.0C444.2 226.2 440.9 222.5 437.7 218.1C434.6 213.7 430.1 208.8 426.9 203.6C423.8 198.3 420.3 192.4 418.6 186.6C417.0 180.8 416.2 174.6 417.2 168.9C418.1 163.3 420.6 157.6 424.1 152.8C427.7 147.9 432.9 143.6 438.3 139.9C443.8 136.2 450.4 133.2 456.9 130.4C463.3 127.7 470.2 125.6 477.0 123.5C483.7 121.3 490.4 119.5 497.2 117.7C504.0 116.0 510.7 114.2 517.6 112.8C524.5 111.5 531.6 110.2 538.6 109.9C545.7 109.5 553.1 109.5 560.0 110.7C566.9 111.8 574.0 113.9 580.1 116.8C586.2 119.8 592.0 123.9 596.8 128.3C601.5 132.7 605.3 138.2 608.5 143.2C611.8 148.1 613.8 153.6 616.1 158.0C618.4 162.4 619.9 166.5 622.6 169.6C625.3 172.7 628.0 174.8 632.3 176.4C636.7 178.1 642.1 178.6 648.8 179.5C655.6 180.4 664.0 180.6 672.6 181.8C681.2 183.1 691.4 184.4 700.4 186.9C709.3 189.5 719.0 192.8 726.2 197.0C733.5 201.2 740.1 206.6 744.0 212.1C747.8 217.6 749.7 224.0 749.6 230.0Z"/><path d="M786.7 230.0C785.8 237.1 781.8 244.6 776.9 251.2C772.1 257.7 764.7 263.8 757.7 269.2C750.7 274.7 742.3 279.3 735.0 283.7C727.7 288.1 720.4 291.9 713.9 295.8C707.3 299.7 701.6 303.4 695.9 307.3C690.3 311.1 685.5 315.1 680.1 319.0C674.7 322.8 669.6 326.8 663.8 330.2C657.9 333.6 651.7 336.8 645.1 339.2C638.5 341.6 631.2 343.3 624.0 344.4C616.8 345.5 609.1 345.7 601.9 345.8C594.6 345.9 587.4 345.3 580.5 345.1C573.5 345.0 566.9 344.6 560.0 345.1C553.1 345.5 546.5 346.4 539.1 347.7C531.7 349.1 524.0 351.3 515.5 353.1C507.0 354.9 497.6 357.4 488.0 358.7C478.5 359.9 467.9 361.1 458.2 360.5C448.6 360.0 438.4 358.4 430.3 355.2C422.2 352.0 414.6 347.2 409.5 341.5C404.5 335.8 401.2 328.3 399.9 321.0C398.6 313.7 399.9 305.2 401.7 297.7C403.6 290.1 407.8 282.4 411.0 275.7C414.3 269.0 418.7 263.0 421.2 257.6C423.6 252.1 425.7 247.7 425.8 243.1C425.9 238.5 424.3 234.6 421.7 230.0C419.1 225.4 414.5 220.8 410.3 215.4C406.2 210.0 400.6 204.0 396.8 197.6C392.9 191.2 389.0 184.0 387.3 177.0C385.7 170.1 385.3 162.6 386.8 155.9C388.3 149.3 391.8 142.7 396.4 137.0C401.0 131.4 407.5 126.4 414.2 122.0C420.9 117.7 428.9 114.2 436.7 110.9C444.4 107.7 452.6 105.1 460.6 102.4C468.6 99.8 476.5 97.4 484.6 95.2C492.7 93.0 500.8 90.7 509.0 89.1C517.3 87.6 525.9 86.0 534.4 85.8C542.9 85.5 551.8 85.8 560.0 87.4C568.2 89.1 576.6 92.0 583.9 95.8C591.1 99.6 597.8 105.0 603.3 110.4C608.8 115.8 613.1 122.5 616.8 128.4C620.6 134.3 622.9 140.6 625.8 145.6C628.7 150.5 630.7 155.0 634.4 158.2C638.0 161.4 641.9 163.4 647.7 165.0C653.5 166.6 660.8 166.9 669.4 167.8C678.1 168.7 688.8 168.9 699.4 170.4C710.0 171.9 722.5 173.7 733.1 176.9C743.8 180.1 755.0 184.4 763.2 189.7C771.4 194.9 778.4 201.6 782.4 208.3C786.3 215.0 787.6 222.9 786.7 230.0Z"/><path d="M823.1 230.0C821.3 238.3 815.9 246.9 809.8 254.4C803.8 261.9 794.9 268.8 786.8 275.0C778.7 281.2 769.2 286.5 761.1 291.7C752.9 296.9 744.9 301.3 737.7 306.0C730.6 310.7 724.3 315.2 718.1 319.9C711.9 324.5 706.4 329.4 700.3 333.9C694.2 338.5 688.2 343.2 681.3 347.1C674.5 351.0 667.1 354.7 659.2 357.3C651.4 359.9 642.8 361.8 634.3 362.9C625.9 364.1 617.0 364.2 608.6 364.4C600.2 364.5 591.9 363.9 583.8 363.9C575.7 364.0 568.1 364.0 560.0 364.8C551.9 365.7 544.1 367.2 535.3 369.2C526.4 371.1 517.2 374.0 507.1 376.3C496.9 378.6 485.7 381.6 474.5 382.9C463.3 384.3 450.8 385.3 439.7 384.3C428.7 383.2 417.1 380.8 408.1 376.6C399.1 372.4 391.0 366.2 385.7 359.1C380.5 352.0 377.5 342.9 376.6 334.3C375.6 325.6 377.7 315.7 380.1 306.9C382.5 298.2 387.5 289.4 391.0 281.9C394.5 274.3 399.1 267.6 401.3 261.5C403.5 255.4 404.9 250.4 404.1 245.2C403.4 239.9 400.5 235.4 396.7 230.0C393.0 224.6 386.9 219.0 381.7 212.6C376.4 206.2 369.8 198.9 365.4 191.4C361.0 183.8 356.8 175.3 355.2 167.2C353.7 159.1 353.9 150.4 356.1 142.8C358.4 135.2 363.0 127.7 368.7 121.3C374.4 114.9 382.3 109.3 390.3 104.3C398.3 99.4 407.6 95.4 416.6 91.5C425.6 87.7 435.0 84.6 444.2 81.4C453.4 78.2 462.6 75.3 472.0 72.6C481.3 69.9 490.7 67.1 500.4 65.3C510.1 63.5 520.2 61.9 530.1 61.8C540.0 61.7 550.4 62.4 560.0 64.7C569.6 67.0 579.2 70.8 587.4 75.6C595.7 80.4 603.2 87.0 609.4 93.4C615.6 99.9 620.3 107.8 624.6 114.4C628.9 121.1 631.6 128.1 635.2 133.5C638.8 138.9 641.5 143.4 646.3 146.7C651.0 150.0 656.3 151.7 663.8 153.1C671.3 154.6 680.6 154.5 691.3 155.4C702.0 156.2 715.2 156.4 727.8 158.2C740.5 160.1 755.1 162.4 767.3 166.4C779.5 170.4 792.0 175.8 800.9 182.2C809.8 188.6 817.0 196.6 820.7 204.6C824.4 212.5 824.9 221.7 823.1 230.0Z"/><path d="M858.6 230.0C855.7 239.4 848.8 249.0 841.5 257.5C834.2 265.9 824.0 273.6 814.9 280.6C805.7 287.6 795.4 293.6 786.5 299.5C777.6 305.4 769.1 310.6 761.4 316.1C753.7 321.6 747.1 327.0 740.4 332.5C733.6 338.0 727.6 343.8 720.7 349.0C713.8 354.3 706.8 359.7 698.9 364.1C691.0 368.5 682.3 372.4 673.2 375.3C664.2 378.2 654.2 380.0 644.6 381.2C634.9 382.5 624.8 382.5 615.2 382.7C605.7 383.0 596.4 382.4 587.2 382.8C578.0 383.2 569.3 383.6 560.0 385.1C550.7 386.5 541.6 388.8 531.3 391.4C521.0 393.9 510.1 397.7 498.3 400.4C486.5 403.2 473.4 406.6 460.5 407.9C447.6 409.2 433.4 410.0 421.0 408.3C408.6 406.7 395.9 403.2 386.2 397.8C376.4 392.5 368.0 384.6 362.8 376.1C357.5 367.6 355.0 356.9 354.6 346.8C354.1 336.7 357.0 325.4 359.9 315.6C362.8 305.7 368.4 296.0 372.0 287.7C375.7 279.3 380.1 272.1 381.8 265.4C383.5 258.6 383.9 253.2 382.0 247.4C380.2 241.5 375.7 236.3 370.7 230.0C365.6 223.7 358.0 217.2 351.7 209.7C345.4 202.2 337.7 193.7 332.9 184.9C328.0 176.2 323.7 166.3 322.5 157.1C321.2 147.9 322.1 138.2 325.2 129.6C328.3 121.0 334.3 112.8 341.2 105.6C348.1 98.5 357.4 92.3 366.6 86.7C375.8 81.2 386.4 76.7 396.6 72.3C406.8 67.9 417.3 64.1 427.8 60.3C438.2 56.6 448.6 53.0 459.2 49.8C469.9 46.7 480.7 43.4 491.8 41.5C502.9 39.5 514.5 37.8 525.9 38.0C537.2 38.2 549.2 39.4 560.0 42.5C570.8 45.5 581.7 50.4 590.9 56.3C600.1 62.1 608.3 69.9 615.2 77.4C622.0 84.9 627.2 93.8 632.0 101.2C636.9 108.6 640.0 116.1 644.4 121.8C648.8 127.4 652.4 131.8 658.4 135.0C664.5 138.1 671.4 139.4 680.7 140.6C690.1 141.8 701.8 141.3 714.6 142.1C727.5 142.9 743.1 143.2 757.8 145.4C772.5 147.6 789.1 150.7 802.7 155.5C816.2 160.4 829.8 167.0 839.1 174.6C848.5 182.2 855.6 191.6 858.8 200.9C862.0 210.1 861.5 220.6 858.6 230.0Z"/><path d="M892.9 230.0C888.9 240.5 880.5 251.1 872.0 260.4C863.5 269.7 852.0 278.2 842.0 286.0C831.9 293.7 820.9 300.4 811.4 307.1C801.9 313.8 793.1 319.9 785.0 326.2C776.9 332.6 770.1 338.9 762.8 345.2C755.4 351.6 748.9 358.2 741.1 364.2C733.4 370.1 725.4 376.2 716.4 381.0C707.4 385.8 697.4 390.1 687.1 393.1C676.8 396.2 665.5 398.0 654.7 399.3C643.8 400.6 632.5 400.5 621.8 401.0C611.2 401.4 600.9 401.1 590.5 401.9C580.2 402.7 570.6 403.8 560.0 405.9C549.4 408.0 539.0 411.2 527.2 414.5C515.4 417.7 502.8 422.3 489.3 425.5C475.8 428.7 460.7 432.4 446.2 433.5C431.7 434.7 415.7 435.0 402.1 432.5C388.5 430.0 374.8 425.3 364.6 418.6C354.3 412.0 345.9 402.4 340.7 392.4C335.6 382.4 333.8 370.0 333.9 358.5C334.0 347.0 337.7 334.5 341.1 323.6C344.4 312.7 350.4 302.3 354.0 293.2C357.5 284.1 361.6 276.5 362.4 269.2C363.3 261.9 362.4 256.1 359.3 249.6C356.1 243.0 349.9 237.2 343.4 230.0C336.9 222.8 327.6 215.2 320.3 206.6C313.0 198.0 304.5 188.2 299.3 178.3C294.1 168.3 290.0 157.2 289.2 146.9C288.3 136.6 290.2 125.8 294.3 116.4C298.4 106.9 305.7 97.9 313.8 90.1C322.0 82.2 332.6 75.5 343.1 69.3C353.5 63.1 365.3 58.0 376.7 53.0C388.0 48.0 399.7 43.6 411.3 39.2C422.9 34.9 434.5 30.5 446.5 26.9C458.4 23.3 470.6 19.7 483.2 17.6C495.7 15.5 508.9 13.9 521.7 14.5C534.5 15.1 547.9 17.1 560.0 21.0C572.1 24.9 584.0 31.0 594.1 37.9C604.2 44.8 613.1 53.9 620.6 62.4C628.1 70.9 633.6 80.7 639.0 88.7C644.5 96.6 648.1 104.4 653.4 110.1C658.7 115.8 663.4 120.0 671.0 122.9C678.5 125.7 687.3 126.4 698.7 127.3C710.1 128.1 724.3 127.3 739.4 128.0C754.5 128.8 772.7 129.2 789.3 131.9C805.9 134.7 824.4 138.5 839.1 144.4C853.9 150.2 868.1 158.1 877.7 166.9C887.2 175.8 893.8 186.7 896.3 197.2C898.9 207.7 897.0 219.5 892.9 230.0Z"/><path d="M926.1 230.0C920.8 241.6 910.8 253.1 901.2 263.3C891.5 273.5 879.1 282.6 868.2 291.2C857.3 299.7 845.9 307.1 835.9 314.7C826.0 322.2 817.1 329.1 808.7 336.3C800.2 343.6 793.2 350.9 785.3 358.1C777.5 365.3 770.3 372.8 761.7 379.4C753.2 386.1 744.1 392.7 733.9 397.9C723.8 403.1 712.4 407.5 700.9 410.7C689.3 413.9 676.7 415.7 664.6 417.1C652.5 418.5 640.2 418.4 628.4 419.1C616.6 419.8 605.4 419.9 594.0 421.2C582.6 422.6 571.8 424.5 560.0 427.4C548.2 430.2 536.3 434.5 522.9 438.5C509.6 442.5 495.1 447.9 479.9 451.4C464.7 455.0 447.7 458.8 431.6 459.7C415.5 460.6 398.0 460.2 383.3 456.7C368.6 453.3 354.1 447.1 343.6 438.9C333.0 430.8 324.7 419.5 319.8 407.9C315.0 396.3 314.0 382.2 314.7 369.4C315.3 356.6 319.9 342.9 323.6 331.1C327.2 319.3 333.4 308.2 336.6 298.5C339.9 288.9 343.1 280.9 343.0 273.1C342.8 265.3 340.3 259.1 335.6 251.9C330.8 244.7 322.7 238.1 314.7 230.0C306.7 221.9 295.9 213.2 287.6 203.4C279.3 193.7 270.2 182.6 264.8 171.4C259.5 160.3 255.7 147.9 255.5 136.6C255.2 125.2 258.2 113.5 263.4 103.2C268.6 92.8 277.3 83.2 286.7 74.7C296.1 66.1 308.0 58.8 319.7 52.0C331.4 45.2 344.3 39.5 356.8 33.8C369.3 28.1 381.9 23.0 394.7 18.0C407.5 13.0 420.3 8.0 433.6 3.9C446.9 -0.1 460.5 -4.1 474.5 -6.2C488.6 -8.3 503.4 -9.7 517.6 -8.6C531.8 -7.5 546.7 -4.6 560.0 0.2C573.3 5.1 586.3 12.5 597.2 20.5C608.2 28.5 617.6 39.0 625.7 48.3C633.8 57.7 639.6 68.3 645.7 76.7C651.9 85.0 656.1 92.9 662.5 98.5C668.9 104.1 674.9 107.8 684.1 110.2C693.4 112.6 704.3 112.6 717.9 113.1C731.5 113.5 748.3 112.3 765.7 113.1C783.0 113.9 803.7 114.6 822.2 117.9C840.7 121.2 860.8 126.0 876.5 132.9C892.2 139.8 906.8 149.2 916.2 159.3C925.7 169.4 931.5 181.8 933.1 193.6C934.8 205.4 931.4 218.4 926.1 230.0Z"/><path d="M958.0 230.0C951.3 242.6 939.9 255.0 929.2 266.0C918.5 277.0 905.2 286.9 893.7 296.2C882.2 305.6 870.5 313.7 860.3 322.1C850.0 330.5 841.1 338.4 832.5 346.5C823.8 354.7 816.5 363.0 808.1 371.0C799.8 379.1 791.9 387.5 782.4 394.8C772.9 402.0 762.7 409.1 751.3 414.7C740.0 420.2 727.2 424.8 714.4 428.1C701.6 431.4 687.7 433.1 674.4 434.6C661.2 436.2 647.8 436.2 635.0 437.3C622.2 438.3 610.0 438.9 597.5 441.0C585.0 443.0 573.2 445.9 560.0 449.6C546.8 453.4 533.5 458.7 518.5 463.5C503.5 468.3 487.2 474.4 470.2 478.2C453.2 482.0 434.3 485.9 416.7 486.3C399.1 486.7 380.2 485.3 364.6 480.7C349.0 476.1 334.0 468.3 323.2 458.6C312.5 448.9 304.5 435.6 300.2 422.5C295.8 409.3 295.7 393.6 296.9 379.6C298.0 365.5 303.4 350.8 307.2 338.1C311.0 325.5 317.2 313.9 319.8 303.7C322.4 293.5 324.6 285.3 323.1 277.0C321.6 268.8 317.2 262.1 310.7 254.3C304.3 246.5 294.1 239.0 284.6 230.0C275.1 221.0 262.8 211.1 253.6 200.1C244.5 189.2 234.9 176.7 229.5 164.4C224.2 152.1 221.0 138.5 221.5 126.1C222.0 113.7 226.3 101.1 232.6 90.0C239.0 78.9 249.2 68.6 259.8 59.4C270.5 50.2 283.7 42.3 296.5 34.8C309.4 27.4 323.3 21.0 336.9 14.6C350.4 8.2 364.1 2.2 378.1 -3.4C392.0 -9.0 406.0 -14.8 420.6 -19.2C435.3 -23.6 450.5 -27.9 466.0 -29.9C481.5 -31.9 497.9 -32.9 513.6 -31.2C529.3 -29.4 545.6 -25.5 560.0 -19.6C574.4 -13.7 588.4 -4.9 600.1 4.2C611.9 13.3 621.8 25.0 630.5 35.1C639.2 45.3 645.3 56.5 652.2 65.1C659.1 73.7 664.0 81.4 671.7 86.7C679.3 92.0 686.9 94.9 698.0 96.8C709.1 98.7 722.4 97.8 738.3 97.9C754.2 98.0 773.8 96.4 793.5 97.3C813.2 98.2 836.2 99.2 856.4 103.2C876.6 107.2 898.1 113.2 914.5 121.2C930.8 129.3 945.5 140.2 954.6 151.7C963.7 163.2 968.4 177.1 969.0 190.1C969.6 203.2 964.6 217.4 958.0 230.0Z"/><path d="M218.5 380.0C217.9 380.9 217.2 381.8 216.7 382.6C216.1 383.4 215.6 384.2 215.2 385.0C214.7 385.8 214.4 386.6 214.0 387.4C213.6 388.1 213.2 388.9 212.7 389.7C212.2 390.4 211.6 391.2 210.8 391.8C210.1 392.5 209.3 393.1 208.3 393.6C207.4 394.1 206.3 394.4 205.3 394.8C204.3 395.1 203.2 395.4 202.2 395.6C201.2 395.9 200.2 396.2 199.2 396.5C198.3 396.8 197.4 397.2 196.4 397.7C195.4 398.2 194.5 398.8 193.4 399.4C192.4 399.9 191.2 400.7 190.0 401.2C188.8 401.8 187.4 402.4 186.0 402.7C184.6 403.0 183.0 403.2 181.6 403.1C180.3 403.0 178.8 402.6 177.7 402.1C176.5 401.5 175.5 400.6 174.7 399.6C174.0 398.6 173.5 397.3 173.2 396.2C172.9 395.0 172.9 393.8 172.9 392.7C172.9 391.6 173.1 390.5 173.1 389.6C173.0 388.7 173.0 388.0 172.8 387.4C172.5 386.7 172.0 386.3 171.3 385.7C170.6 385.2 169.7 384.8 168.7 384.2C167.7 383.7 166.4 383.1 165.4 382.4C164.3 381.7 163.2 380.9 162.3 380.0C161.5 379.1 160.8 378.1 160.4 377.1C160.0 376.1 159.9 375.0 160.0 374.0C160.1 373.1 160.6 372.1 161.1 371.1C161.6 370.2 162.4 369.3 163.2 368.5C164.0 367.7 164.9 367.0 165.7 366.2C166.6 365.5 167.5 364.7 168.5 364.1C169.4 363.4 170.4 362.7 171.4 362.1C172.5 361.4 173.5 360.8 174.7 360.4C175.9 360.0 177.2 359.6 178.5 359.5C179.8 359.3 181.3 359.4 182.6 359.6C184.0 359.8 185.4 360.3 186.6 360.8C187.8 361.4 189.0 362.2 190.0 362.9C191.0 363.6 191.9 364.4 192.7 365.1C193.5 365.7 194.1 366.3 194.8 366.7C195.6 367.1 196.2 367.3 197.1 367.3C198.0 367.4 199.0 367.2 200.2 367.0C201.4 366.8 202.8 366.4 204.4 366.1C205.9 365.9 207.7 365.6 209.4 365.6C211.1 365.6 213.0 365.7 214.5 366.1C216.1 366.4 217.6 367.0 218.7 367.7C219.8 368.5 220.6 369.5 221.1 370.5C221.6 371.5 221.7 372.6 221.6 373.7C221.4 374.8 220.9 376.0 220.4 377.0C219.9 378.1 219.2 379.1 218.5 380.0Z"/><path d="M245.9 380.0C244.8 381.8 243.6 383.5 242.6 385.1C241.7 386.8 240.9 388.3 240.1 390.0C239.4 391.6 238.8 393.2 238.1 394.7C237.3 396.3 236.6 398.0 235.5 399.5C234.4 400.9 233.2 402.4 231.7 403.7C230.2 404.9 228.3 406.1 226.5 407.0C224.6 408.0 222.4 408.7 220.4 409.4C218.4 410.1 216.3 410.5 214.3 411.2C212.3 411.8 210.4 412.4 208.5 413.2C206.7 414.0 204.9 414.9 203.0 416.0C201.1 417.1 199.2 418.4 197.1 419.7C194.9 420.9 192.5 422.4 190.0 423.5C187.5 424.6 184.6 425.7 181.8 426.2C179.0 426.7 175.9 426.9 173.2 426.5C170.5 426.0 167.7 425.0 165.6 423.7C163.4 422.3 161.6 420.3 160.2 418.2C158.9 416.1 158.2 413.5 157.7 411.2C157.1 408.9 157.2 406.4 157.1 404.3C157.1 402.2 157.3 400.3 157.1 398.7C156.9 397.1 156.6 395.8 155.8 394.6C154.9 393.5 153.7 392.6 152.0 391.6C150.4 390.7 148.2 389.8 146.1 388.7C143.9 387.6 141.3 386.4 139.2 385.0C137.1 383.5 134.9 381.8 133.3 380.0C131.8 378.2 130.6 376.1 130.0 374.1C129.4 372.2 129.4 370.0 129.8 368.0C130.2 366.1 131.2 364.1 132.3 362.3C133.4 360.5 135.0 358.8 136.5 357.1C138.1 355.5 139.8 354.0 141.5 352.5C143.3 350.9 145.0 349.5 146.9 348.0C148.7 346.6 150.6 345.2 152.7 344.0C154.8 342.8 157.0 341.6 159.5 340.8C161.9 340.0 164.5 339.4 167.2 339.3C169.9 339.1 172.8 339.3 175.5 339.9C178.2 340.5 181.0 341.6 183.4 342.8C185.8 343.9 188.0 345.5 190.0 346.9C192.0 348.3 193.6 349.9 195.2 351.0C196.7 352.1 198.0 353.1 199.5 353.7C201.1 354.2 202.5 354.3 204.4 354.2C206.4 354.1 208.5 353.4 211.1 352.9C213.7 352.4 216.8 351.5 220.0 351.1C223.2 350.6 226.9 350.1 230.3 350.2C233.7 350.2 237.3 350.6 240.2 351.5C243.2 352.3 245.9 353.7 247.9 355.3C249.8 356.9 251.1 359.0 251.8 361.0C252.5 363.1 252.4 365.5 252.0 367.7C251.6 369.9 250.5 372.1 249.5 374.2C248.5 376.2 247.1 378.2 245.9 380.0Z"/><path d="M272.3 380.0C270.8 382.7 269.3 385.1 268.1 387.6C266.9 390.1 266.1 392.5 265.1 394.9C264.1 397.3 263.5 399.8 262.3 402.2C261.2 404.6 260.1 407.0 258.4 409.3C256.8 411.5 254.7 413.6 252.4 415.5C250.0 417.3 247.2 418.9 244.4 420.3C241.5 421.6 238.3 422.7 235.3 423.7C232.3 424.8 229.2 425.6 226.4 426.7C223.5 427.7 220.8 428.8 218.1 430.2C215.3 431.6 212.8 433.2 209.9 435.1C207.1 436.9 204.2 439.1 200.9 441.1C197.5 443.0 193.9 445.3 190.0 446.8C186.1 448.4 181.7 449.8 177.5 450.3C173.3 450.8 168.7 450.7 164.8 449.8C160.8 448.8 156.9 446.9 153.9 444.6C150.9 442.2 148.4 438.9 146.6 435.6C144.9 432.4 144.0 428.5 143.3 425.1C142.7 421.6 142.8 418.1 142.6 415.1C142.3 412.2 142.5 409.6 141.9 407.4C141.2 405.2 140.4 403.5 138.7 401.9C137.0 400.4 134.6 399.3 131.8 397.8C129.1 396.4 125.4 395.2 122.0 393.5C118.6 391.8 114.7 389.9 111.6 387.7C108.4 385.4 105.3 382.8 103.2 380.0C101.1 377.2 99.6 374.1 99.0 371.1C98.4 368.1 98.7 365.0 99.5 362.0C100.3 359.1 101.9 356.2 103.7 353.5C105.5 350.8 107.8 348.3 110.1 345.8C112.3 343.3 114.8 341.0 117.3 338.7C119.8 336.4 122.3 334.1 125.1 331.9C127.9 329.8 130.7 327.6 133.9 325.8C137.1 324.1 140.5 322.4 144.3 321.3C148.0 320.3 152.1 319.6 156.2 319.5C160.3 319.5 164.7 320.1 168.7 321.2C172.8 322.2 176.8 324.1 180.4 325.9C183.9 327.7 187.1 330.1 190.0 332.1C192.9 334.1 195.2 336.2 197.5 337.6C199.9 339.1 201.8 340.2 204.2 340.6C206.7 341.1 209.1 340.8 212.2 340.3C215.3 339.8 218.9 338.6 223.0 337.7C227.1 336.7 232.0 335.4 236.9 334.7C241.8 334.0 247.5 333.5 252.4 333.7C257.4 334.0 262.7 334.9 266.8 336.4C270.9 337.9 274.6 340.2 277.1 342.8C279.6 345.3 281.1 348.6 281.8 351.8C282.5 355.0 282.0 358.6 281.2 361.9C280.5 365.2 278.8 368.5 277.3 371.5C275.8 374.5 273.8 377.3 272.3 380.0Z"/><path d="M297.9 380.0C296.2 383.5 294.7 386.8 293.4 390.1C292.1 393.4 291.3 396.6 290.2 399.9C289.1 403.2 288.3 406.5 286.8 409.7C285.3 412.9 283.7 416.2 281.4 419.1C279.0 422.0 276.1 424.7 272.9 427.1C269.7 429.5 265.8 431.5 262.0 433.3C258.1 435.1 253.9 436.4 250.0 437.9C246.1 439.4 242.2 440.6 238.5 442.3C234.8 443.9 231.4 445.6 227.9 447.7C224.3 449.9 221.0 452.4 217.2 455.1C213.3 457.7 209.4 460.9 204.9 463.6C200.3 466.2 195.3 469.2 190.0 471.1C184.7 472.9 178.7 474.5 173.2 474.8C167.6 475.1 161.5 474.4 156.5 472.7C151.4 471.0 146.5 467.9 142.8 464.5C139.0 461.0 136.1 456.3 134.0 451.8C131.9 447.3 131.0 442.2 130.2 437.7C129.4 433.3 129.6 428.8 129.0 425.2C128.5 421.5 128.3 418.4 127.0 415.8C125.7 413.2 123.9 411.3 121.1 409.4C118.4 407.6 114.6 406.2 110.4 404.4C106.3 402.6 101.1 400.9 96.4 398.6C91.8 396.2 86.5 393.6 82.5 390.5C78.4 387.4 74.6 383.7 72.2 380.0C69.7 376.3 68.2 372.1 67.7 368.1C67.2 364.1 68.0 359.9 69.3 356.0C70.5 352.2 72.9 348.4 75.3 344.8C77.7 341.2 80.7 337.8 83.7 334.5C86.6 331.2 89.7 328.0 93.0 324.9C96.3 321.7 99.5 318.6 103.2 315.7C106.9 312.8 110.7 309.9 115.0 307.6C119.4 305.4 124.2 303.3 129.3 302.1C134.3 300.9 140.0 300.2 145.5 300.5C151.0 300.7 157.0 301.9 162.3 303.5C167.7 305.1 173.0 307.8 177.6 310.2C182.2 312.7 186.3 315.9 190.0 318.3C193.7 320.7 196.6 323.2 199.8 324.7C203.0 326.2 205.6 327.1 209.1 327.2C212.5 327.4 216.0 326.5 220.5 325.5C225.0 324.5 230.1 322.5 235.9 321.1C241.7 319.7 248.5 317.9 255.1 317.1C261.8 316.3 269.3 315.8 275.7 316.5C282.2 317.1 288.8 318.7 293.8 321.0C298.9 323.3 303.2 326.7 306.0 330.4C308.9 334.0 310.3 338.6 310.8 342.9C311.3 347.3 310.3 352.0 309.1 356.4C308.0 360.7 305.7 365.0 303.8 368.9C301.9 372.8 299.7 376.5 297.9 380.0Z"/><path d="M323.0 380.0C321.2 384.4 319.9 388.4 318.6 392.5C317.4 396.7 316.7 400.8 315.5 404.9C314.3 409.0 313.3 413.3 311.4 417.3C309.6 421.2 307.3 425.3 304.2 428.8C301.2 432.4 297.3 435.7 293.2 438.6C289.0 441.5 284.0 443.9 279.3 446.1C274.5 448.4 269.4 450.1 264.6 452.1C259.9 454.1 255.3 455.8 250.9 458.1C246.4 460.4 242.4 463.0 238.1 466.0C233.7 469.0 229.6 472.6 224.8 476.1C219.9 479.6 214.8 483.8 209.0 487.1C203.2 490.5 196.7 494.0 190.0 496.0C183.3 498.0 175.7 499.5 168.8 499.3C161.9 499.1 154.5 497.6 148.4 494.9C142.3 492.2 136.6 487.9 132.3 483.1C128.0 478.4 124.8 472.3 122.5 466.6C120.1 461.0 119.3 454.6 118.2 449.3C117.2 444.0 117.2 438.8 116.2 434.6C115.2 430.5 114.4 427.1 112.2 424.2C109.9 421.3 106.9 419.4 102.8 417.3C98.7 415.2 93.2 413.6 87.7 411.4C82.1 409.2 75.2 406.9 69.3 404.0C63.4 401.0 57.0 397.4 52.2 393.4C47.4 389.4 43.1 384.7 40.5 380.0C37.8 375.3 36.5 370.0 36.3 365.0C36.1 360.0 37.5 354.9 39.3 350.1C41.1 345.3 44.1 340.6 47.1 336.2C50.1 331.7 53.7 327.4 57.3 323.2C60.8 319.0 64.5 314.9 68.5 310.9C72.5 307.0 76.5 302.9 81.1 299.3C85.7 295.8 90.6 292.2 96.2 289.5C101.8 286.8 108.0 284.4 114.6 283.2C121.1 282.0 128.4 281.7 135.4 282.3C142.3 282.9 149.8 284.8 156.4 287.0C163.0 289.3 169.4 292.8 175.0 295.8C180.6 298.8 185.5 302.6 190.0 305.3C194.5 308.0 198.1 310.6 202.1 311.9C206.1 313.2 209.6 313.6 214.2 313.2C218.7 312.8 223.5 311.1 229.5 309.4C235.4 307.7 242.4 305.0 249.9 303.1C257.4 301.3 266.3 299.1 274.6 298.3C282.9 297.6 292.2 297.4 299.9 298.6C307.7 299.8 315.3 302.2 321.1 305.5C326.8 308.8 331.4 313.4 334.4 318.3C337.3 323.1 338.4 328.9 338.6 334.4C338.8 339.9 337.2 345.8 335.6 351.1C334.1 356.4 331.4 361.6 329.3 366.4C327.2 371.2 324.8 375.6 323.0 380.0Z"/></svg>
